<mxfile host="app.diagrams.net" modified="2023-06-07T01:59:34.277Z" agent="Mozilla/5.0 (Windows NT 10.0; Win64; x64) AppleWebKit/537.36 (KHTML, like Gecko) Chrome/114.0.0.0 Safari/537.36 Edg/114.0.1823.37" etag="DUvhwEPYypqlTzns0rMT" version="21.3.7" type="gitlab">
  <diagram name="Page-1" id="HHhuCHVrDzRqCsU30l4w">
    <mxGraphModel dx="3133" dy="2454" grid="1" gridSize="10" guides="1" tooltips="1" connect="1" arrows="1" fold="1" page="1" pageScale="1" pageWidth="827" pageHeight="1169" math="0" shadow="0">
      <root>
        <mxCell id="0" />
        <mxCell id="1" parent="0" />
        <mxCell id="67tb0t_BVhYQ47Y2KXhV-3" value="Responsable&amp;nbsp;&lt;br&gt;Développement" style="shape=umlActor;verticalLabelPosition=bottom;verticalAlign=top;html=1;outlineConnect=0;" vertex="1" parent="1">
          <mxGeometry x="-300" y="-80" width="30" height="60" as="geometry" />
        </mxCell>
        <mxCell id="67tb0t_BVhYQ47Y2KXhV-4" value="" style="edgeStyle=orthogonalEdgeStyle;rounded=0;orthogonalLoop=1;jettySize=auto;html=1;endArrow=none;endFill=0;dashed=1;exitX=0.421;exitY=1.03;exitDx=0;exitDy=0;exitPerimeter=0;" edge="1" parent="1" source="67tb0t_BVhYQ47Y2KXhV-18">
          <mxGeometry relative="1" as="geometry">
            <Array as="points">
              <mxPoint x="-70" y="21" />
            </Array>
            <mxPoint x="-70" y="80" as="targetPoint" />
          </mxGeometry>
        </mxCell>
        <mxCell id="67tb0t_BVhYQ47Y2KXhV-5" value="" style="shape=umlBoundary;whiteSpace=wrap;html=1;" vertex="1" parent="1">
          <mxGeometry x="-110" y="-90" width="100" height="80" as="geometry" />
        </mxCell>
        <mxCell id="67tb0t_BVhYQ47Y2KXhV-6" style="edgeStyle=orthogonalEdgeStyle;rounded=0;orthogonalLoop=1;jettySize=auto;html=1;entryX=0.454;entryY=0.013;entryDx=0;entryDy=0;entryPerimeter=0;endArrow=none;endFill=0;dashed=1;exitX=0.5;exitY=1;exitDx=0;exitDy=0;" edge="1" parent="1" source="67tb0t_BVhYQ47Y2KXhV-17">
          <mxGeometry relative="1" as="geometry">
            <Array as="points">
              <mxPoint x="205" y="20" />
              <mxPoint x="205" y="81" />
            </Array>
            <mxPoint x="467.0800000000004" y="80.90999999999985" as="targetPoint" />
          </mxGeometry>
        </mxCell>
        <mxCell id="67tb0t_BVhYQ47Y2KXhV-7" value="" style="shape=umlBoundary;whiteSpace=wrap;html=1;" vertex="1" parent="1">
          <mxGeometry x="150" y="-90" width="100" height="80" as="geometry" />
        </mxCell>
        <mxCell id="67tb0t_BVhYQ47Y2KXhV-14" style="edgeStyle=orthogonalEdgeStyle;rounded=0;orthogonalLoop=1;jettySize=auto;html=1;endArrow=none;endFill=0;dashed=1;exitX=0.5;exitY=1;exitDx=0;exitDy=0;" edge="1" parent="1" source="67tb0t_BVhYQ47Y2KXhV-16">
          <mxGeometry relative="1" as="geometry">
            <mxPoint x="475" y="70" as="targetPoint" />
            <Array as="points">
              <mxPoint x="475" y="80" />
            </Array>
          </mxGeometry>
        </mxCell>
        <mxCell id="67tb0t_BVhYQ47Y2KXhV-15" value="" style="ellipse;shape=umlControl;whiteSpace=wrap;html=1;" vertex="1" parent="1">
          <mxGeometry x="440" y="-90" width="70" height="80" as="geometry" />
        </mxCell>
        <mxCell id="67tb0t_BVhYQ47Y2KXhV-16" value="&lt;span style=&quot;font-size: 16px;&quot;&gt;&lt;b&gt;: Ctr Nomenclature&lt;/b&gt;&lt;/span&gt;" style="text;html=1;strokeColor=none;fillColor=none;align=center;verticalAlign=middle;whiteSpace=wrap;rounded=0;" vertex="1" parent="1">
          <mxGeometry x="400" y="-10" width="150" height="30" as="geometry" />
        </mxCell>
        <mxCell id="67tb0t_BVhYQ47Y2KXhV-17" value="&lt;span style=&quot;font-size: 16px;&quot;&gt;&lt;b&gt;: Liste Nomenclature&lt;/b&gt;&lt;/span&gt;" style="text;html=1;strokeColor=none;fillColor=none;align=center;verticalAlign=middle;whiteSpace=wrap;rounded=0;" vertex="1" parent="1">
          <mxGeometry x="100" y="-10" width="180" height="30" as="geometry" />
        </mxCell>
        <mxCell id="67tb0t_BVhYQ47Y2KXhV-18" value="&lt;span style=&quot;font-size: 16px;&quot;&gt;&lt;b&gt;: Nouveau Nomenclature&lt;/b&gt;&lt;/span&gt;" style="text;html=1;strokeColor=none;fillColor=none;align=center;verticalAlign=middle;whiteSpace=wrap;rounded=0;" vertex="1" parent="1">
          <mxGeometry x="-160" y="-10" width="200" height="30" as="geometry" />
        </mxCell>
        <mxCell id="67tb0t_BVhYQ47Y2KXhV-20" value="&lt;font style=&quot;&quot;&gt;&lt;span style=&quot;font-size: 16px;&quot;&gt;&lt;b&gt;: Ctr Etape production&lt;/b&gt;&lt;/span&gt;&lt;br&gt;&lt;/font&gt;" style="text;html=1;strokeColor=none;fillColor=none;align=center;verticalAlign=middle;whiteSpace=wrap;rounded=0;" vertex="1" parent="1">
          <mxGeometry x="730" y="-10" width="180" height="30" as="geometry" />
        </mxCell>
        <mxCell id="67tb0t_BVhYQ47Y2KXhV-21" style="edgeStyle=orthogonalEdgeStyle;rounded=0;orthogonalLoop=1;jettySize=auto;html=1;entryX=0.895;entryY=0;entryDx=0;entryDy=0;entryPerimeter=0;endArrow=none;endFill=0;dashed=1;exitX=0.65;exitY=1.067;exitDx=0;exitDy=0;exitPerimeter=0;" edge="1" parent="1" source="67tb0t_BVhYQ47Y2KXhV-20">
          <mxGeometry relative="1" as="geometry">
            <mxPoint x="485" y="30" as="sourcePoint" />
            <mxPoint x="1357.8999999999996" y="80" as="targetPoint" />
            <Array as="points">
              <mxPoint x="828" y="80" />
            </Array>
          </mxGeometry>
        </mxCell>
        <mxCell id="67tb0t_BVhYQ47Y2KXhV-22" style="edgeStyle=orthogonalEdgeStyle;rounded=0;orthogonalLoop=1;jettySize=auto;html=1;exitX=0.165;exitY=1.029;exitDx=0;exitDy=0;exitPerimeter=0;endArrow=none;endFill=0;dashed=1;" edge="1" parent="1">
          <mxGeometry relative="1" as="geometry">
            <mxPoint x="480" y="150" as="sourcePoint" />
            <mxPoint x="481" y="1210" as="targetPoint" />
          </mxGeometry>
        </mxCell>
        <mxCell id="67tb0t_BVhYQ47Y2KXhV-24" style="edgeStyle=orthogonalEdgeStyle;rounded=0;orthogonalLoop=1;jettySize=auto;html=1;exitX=0.165;exitY=1.029;exitDx=0;exitDy=0;exitPerimeter=0;endArrow=none;endFill=0;dashed=1;" edge="1" parent="1">
          <mxGeometry relative="1" as="geometry">
            <mxPoint x="-70" y="150" as="sourcePoint" />
            <mxPoint x="-70" y="1210" as="targetPoint" />
          </mxGeometry>
        </mxCell>
        <mxCell id="67tb0t_BVhYQ47Y2KXhV-25" value="[&lt;span style=&quot;font-size: 16px;&quot;&gt;Création des éléments&lt;/span&gt;&lt;span style=&quot;font-size: 16px;&quot;&gt;]&lt;/span&gt;" style="text;html=1;strokeColor=none;fillColor=none;align=center;verticalAlign=middle;whiteSpace=wrap;rounded=0;" vertex="1" parent="1">
          <mxGeometry x="-380" y="450.25" width="180" height="80" as="geometry" />
        </mxCell>
        <mxCell id="67tb0t_BVhYQ47Y2KXhV-26" value="[&lt;span style=&quot;font-size: 16px;&quot;&gt;Affichage liste Nomenclature&lt;/span&gt;&lt;span style=&quot;font-size: 16px;&quot;&gt;]&lt;/span&gt;" style="text;html=1;strokeColor=none;fillColor=none;align=center;verticalAlign=middle;whiteSpace=wrap;rounded=0;" vertex="1" parent="1">
          <mxGeometry x="-370" y="805" width="180" height="80" as="geometry" />
        </mxCell>
        <mxCell id="67tb0t_BVhYQ47Y2KXhV-27" style="edgeStyle=orthogonalEdgeStyle;rounded=0;orthogonalLoop=1;jettySize=auto;html=1;exitX=0.165;exitY=1.029;exitDx=0;exitDy=0;exitPerimeter=0;endArrow=none;endFill=0;dashed=1;" edge="1" parent="1">
          <mxGeometry relative="1" as="geometry">
            <mxPoint x="830" y="150" as="sourcePoint" />
            <mxPoint x="831" y="1210" as="targetPoint" />
          </mxGeometry>
        </mxCell>
        <mxCell id="67tb0t_BVhYQ47Y2KXhV-28" style="edgeStyle=elbowEdgeStyle;rounded=0;orthogonalLoop=1;jettySize=auto;html=1;elbow=vertical;curved=0;endSize=14;endArrow=open;endFill=0;dashed=1;" edge="1" parent="1" source="67tb0t_BVhYQ47Y2KXhV-29">
          <mxGeometry relative="1" as="geometry">
            <mxPoint x="-70" y="280" as="targetPoint" />
          </mxGeometry>
        </mxCell>
        <mxCell id="67tb0t_BVhYQ47Y2KXhV-29" value="" style="html=1;points=[];perimeter=orthogonalPerimeter;outlineConnect=0;targetShapes=umlLifeline;portConstraint=eastwest;newEdgeStyle={&quot;edgeStyle&quot;:&quot;elbowEdgeStyle&quot;,&quot;elbow&quot;:&quot;vertical&quot;,&quot;curved&quot;:0,&quot;rounded&quot;:0};" vertex="1" parent="1">
          <mxGeometry x="470" y="210" width="10" height="80" as="geometry" />
        </mxCell>
        <mxCell id="67tb0t_BVhYQ47Y2KXhV-30" value="&lt;font style=&quot;font-size: 16px;&quot;&gt;1:Demander Interface Création nomenclature&lt;/font&gt;" style="html=1;verticalAlign=bottom;startArrow=none;endArrow=block;startSize=8;edgeStyle=elbowEdgeStyle;elbow=vertical;curved=0;rounded=0;startFill=0;" edge="1" parent="1" target="67tb0t_BVhYQ47Y2KXhV-29">
          <mxGeometry relative="1" as="geometry">
            <mxPoint x="-70" y="210" as="sourcePoint" />
          </mxGeometry>
        </mxCell>
        <mxCell id="67tb0t_BVhYQ47Y2KXhV-31" value="&lt;font style=&quot;font-size: 16px;&quot;&gt;2:AfficherFormulaire&amp;nbsp;&lt;/font&gt;" style="text;html=1;strokeColor=none;fillColor=none;align=center;verticalAlign=middle;whiteSpace=wrap;rounded=0;" vertex="1" parent="1">
          <mxGeometry x="-30" y="250" width="200" height="30" as="geometry" />
        </mxCell>
        <mxCell id="67tb0t_BVhYQ47Y2KXhV-56" value="" style="html=1;verticalAlign=bottom;endArrow=open;dashed=1;endSize=8;edgeStyle=elbowEdgeStyle;elbow=vertical;curved=0;rounded=0;" edge="1" parent="1">
          <mxGeometry relative="1" as="geometry">
            <mxPoint x="205" y="924.79" as="targetPoint" />
            <mxPoint x="480" y="924.79" as="sourcePoint" />
          </mxGeometry>
        </mxCell>
        <mxCell id="67tb0t_BVhYQ47Y2KXhV-57" value="&lt;font style=&quot;font-size: 17px;&quot;&gt;Nomenclature créé avec sucés&lt;/font&gt;" style="html=1;verticalAlign=bottom;endArrow=open;dashed=1;endSize=8;edgeStyle=elbowEdgeStyle;elbow=vertical;curved=0;rounded=0;" edge="1" parent="1">
          <mxGeometry relative="1" as="geometry">
            <mxPoint x="-75" y="939.79" as="targetPoint" />
            <mxPoint x="200" y="939.79" as="sourcePoint" />
            <Array as="points" />
          </mxGeometry>
        </mxCell>
        <mxCell id="67tb0t_BVhYQ47Y2KXhV-62" style="edgeStyle=orthogonalEdgeStyle;rounded=0;orthogonalLoop=1;jettySize=auto;html=1;entryX=0.647;entryY=0;entryDx=0;entryDy=0;entryPerimeter=0;endArrow=none;endFill=0;dashed=1;exitX=0.5;exitY=1;exitDx=0;exitDy=0;" edge="1" parent="1" source="67tb0t_BVhYQ47Y2KXhV-64">
          <mxGeometry relative="1" as="geometry">
            <mxPoint x="1306" y="80" as="targetPoint" />
            <Array as="points">
              <mxPoint x="1125" y="80" />
            </Array>
          </mxGeometry>
        </mxCell>
        <mxCell id="67tb0t_BVhYQ47Y2KXhV-64" value="&lt;span style=&quot;font-size: 16px;&quot;&gt;&lt;b&gt;: Liste Nomenclature&lt;/b&gt;&lt;/span&gt;" style="text;html=1;strokeColor=none;fillColor=none;align=center;verticalAlign=middle;whiteSpace=wrap;rounded=0;" vertex="1" parent="1">
          <mxGeometry x="1020" y="-10" width="180" height="30" as="geometry" />
        </mxCell>
        <mxCell id="67tb0t_BVhYQ47Y2KXhV-65" style="edgeStyle=orthogonalEdgeStyle;rounded=0;orthogonalLoop=1;jettySize=auto;html=1;endArrow=none;endFill=0;dashed=1;" edge="1" parent="1">
          <mxGeometry relative="1" as="geometry">
            <mxPoint x="1132" y="140" as="sourcePoint" />
            <mxPoint x="1132" y="1210" as="targetPoint" />
          </mxGeometry>
        </mxCell>
        <mxCell id="67tb0t_BVhYQ47Y2KXhV-70" style="edgeStyle=orthogonalEdgeStyle;rounded=0;orthogonalLoop=1;jettySize=auto;html=1;entryX=0.926;entryY=0.005;entryDx=0;entryDy=0;entryPerimeter=0;endArrow=none;endFill=0;dashed=1;exitX=0.667;exitY=1.333;exitDx=0;exitDy=0;exitPerimeter=0;" edge="1" parent="1" source="67tb0t_BVhYQ47Y2KXhV-72">
          <mxGeometry relative="1" as="geometry">
            <mxPoint x="1420.5200000000004" y="80.34999999999991" as="targetPoint" />
            <Array as="points">
              <mxPoint x="1425" y="30" />
              <mxPoint x="1425" y="80" />
            </Array>
          </mxGeometry>
        </mxCell>
        <mxCell id="67tb0t_BVhYQ47Y2KXhV-72" value="&lt;span style=&quot;font-size: 16px;&quot;&gt;&lt;b&gt;: Liste Etape production&lt;/b&gt;&lt;/span&gt;" style="text;html=1;strokeColor=none;fillColor=none;align=center;verticalAlign=middle;whiteSpace=wrap;rounded=0;" vertex="1" parent="1">
          <mxGeometry x="1290" y="-10" width="210" height="30" as="geometry" />
        </mxCell>
        <mxCell id="67tb0t_BVhYQ47Y2KXhV-73" style="edgeStyle=orthogonalEdgeStyle;rounded=0;orthogonalLoop=1;jettySize=auto;html=1;exitX=0.165;exitY=1.029;exitDx=0;exitDy=0;exitPerimeter=0;endArrow=none;endFill=0;dashed=1;" edge="1" parent="1">
          <mxGeometry relative="1" as="geometry">
            <mxPoint x="1430" y="150" as="sourcePoint" />
            <mxPoint x="1436" y="1210" as="targetPoint" />
          </mxGeometry>
        </mxCell>
        <mxCell id="67tb0t_BVhYQ47Y2KXhV-76" value="" style="ellipse;shape=umlEntity;whiteSpace=wrap;html=1;" vertex="1" parent="1">
          <mxGeometry x="1390" y="-90" width="80" height="80" as="geometry" />
        </mxCell>
        <mxCell id="67tb0t_BVhYQ47Y2KXhV-78" value="" style="ellipse;shape=umlEntity;whiteSpace=wrap;html=1;" vertex="1" parent="1">
          <mxGeometry x="1080" y="-90" width="80" height="80" as="geometry" />
        </mxCell>
        <mxCell id="67tb0t_BVhYQ47Y2KXhV-79" value="" style="ellipse;shape=umlControl;whiteSpace=wrap;html=1;" vertex="1" parent="1">
          <mxGeometry x="785" y="-90" width="70" height="80" as="geometry" />
        </mxCell>
        <mxCell id="67tb0t_BVhYQ47Y2KXhV-82" style="edgeStyle=orthogonalEdgeStyle;rounded=0;orthogonalLoop=1;jettySize=auto;html=1;entryX=0.079;entryY=0.015;entryDx=0;entryDy=0;entryPerimeter=0;endArrow=none;endFill=0;dashed=1;" edge="1" parent="1">
          <mxGeometry relative="1" as="geometry">
            <mxPoint x="-290.4199999999996" y="81.04999999999973" as="targetPoint" />
            <Array as="points" />
            <mxPoint x="-290" y="20" as="sourcePoint" />
          </mxGeometry>
        </mxCell>
        <mxCell id="67tb0t_BVhYQ47Y2KXhV-91" value="DS Gérer Nomenclature" style="shape=umlFrame;whiteSpace=wrap;html=1;pointerEvents=0;width=170;height=40;" vertex="1" parent="1">
          <mxGeometry x="-480" y="-140" width="2110" height="1370" as="geometry" />
        </mxCell>
        <mxCell id="67tb0t_BVhYQ47Y2KXhV-92" value="alt" style="shape=umlFrame;whiteSpace=wrap;html=1;pointerEvents=0;" vertex="1" parent="1">
          <mxGeometry x="-460" y="80" width="2080" height="70" as="geometry" />
        </mxCell>
        <mxCell id="67tb0t_BVhYQ47Y2KXhV-93" value="loop" style="shape=umlFrame;whiteSpace=wrap;html=1;pointerEvents=0;" vertex="1" parent="1">
          <mxGeometry x="-465" y="340.25" width="2080" height="409.75" as="geometry" />
        </mxCell>
        <mxCell id="67tb0t_BVhYQ47Y2KXhV-94" value="frame" style="shape=umlFrame;whiteSpace=wrap;html=1;pointerEvents=0;" vertex="1" parent="1">
          <mxGeometry x="-460" y="980" width="2080" height="190" as="geometry" />
        </mxCell>
        <mxCell id="67tb0t_BVhYQ47Y2KXhV-95" value="&lt;font style=&quot;font-size: 19px;&quot;&gt;S&#39;authentifier nominal&lt;/font&gt;" style="text;html=1;align=center;verticalAlign=middle;resizable=0;points=[];autosize=1;strokeColor=none;fillColor=none;" vertex="1" parent="1">
          <mxGeometry x="415" y="93" width="210" height="40" as="geometry" />
        </mxCell>
        <mxCell id="67tb0t_BVhYQ47Y2KXhV-99" value="" style="html=1;verticalAlign=bottom;endArrow=block;edgeStyle=elbowEdgeStyle;elbow=vertical;curved=0;rounded=0;" edge="1" target="67tb0t_BVhYQ47Y2KXhV-98" parent="1">
          <mxGeometry relative="1" as="geometry">
            <mxPoint x="-65" y="410.25" as="sourcePoint" />
          </mxGeometry>
        </mxCell>
        <mxCell id="67tb0t_BVhYQ47Y2KXhV-103" value="&lt;font style=&quot;font-size: 16px;&quot;&gt;1:Demander Interface Création Element&lt;/font&gt;" style="text;html=1;align=center;verticalAlign=middle;resizable=0;points=[];autosize=1;strokeColor=none;fillColor=none;" vertex="1" parent="1">
          <mxGeometry x="-95" y="460" width="310" height="30" as="geometry" />
        </mxCell>
        <mxCell id="67tb0t_BVhYQ47Y2KXhV-108" value="" style="html=1;points=[];perimeter=orthogonalPerimeter;outlineConnect=0;targetShapes=umlLifeline;portConstraint=eastwest;newEdgeStyle={&quot;edgeStyle&quot;:&quot;elbowEdgeStyle&quot;,&quot;elbow&quot;:&quot;vertical&quot;,&quot;curved&quot;:0,&quot;rounded&quot;:0};" vertex="1" parent="1">
          <mxGeometry x="195" y="592.75" width="10" height="90" as="geometry" />
        </mxCell>
        <mxCell id="67tb0t_BVhYQ47Y2KXhV-110" value="&lt;font style=&quot;font-size: 16px;&quot;&gt;Cliquer sur ajouter a la liste des composites&lt;/font&gt;" style="text;html=1;align=center;verticalAlign=middle;resizable=0;points=[];autosize=1;strokeColor=none;fillColor=none;" vertex="1" parent="1">
          <mxGeometry x="-130" y="552.75" width="330" height="30" as="geometry" />
        </mxCell>
        <mxCell id="67tb0t_BVhYQ47Y2KXhV-111" value="" style="html=1;verticalAlign=bottom;endArrow=block;edgeStyle=elbowEdgeStyle;elbow=vertical;curved=0;rounded=0;" edge="1" parent="1">
          <mxGeometry relative="1" as="geometry">
            <mxPoint x="-72.5" y="592.75" as="sourcePoint" />
            <mxPoint x="192.5" y="593" as="targetPoint" />
          </mxGeometry>
        </mxCell>
        <mxCell id="67tb0t_BVhYQ47Y2KXhV-117" value="" style="endArrow=open;endSize=12;dashed=1;html=1;rounded=0;" edge="1" parent="1" source="67tb0t_BVhYQ47Y2KXhV-98">
          <mxGeometry x="-0.0084" y="-17" width="160" relative="1" as="geometry">
            <mxPoint x="625" y="310.25" as="sourcePoint" />
            <mxPoint x="-65" y="460.25" as="targetPoint" />
            <mxPoint y="-1" as="offset" />
          </mxGeometry>
        </mxCell>
        <mxCell id="67tb0t_BVhYQ47Y2KXhV-124" value="&lt;font style=&quot;font-size: 16px;&quot;&gt;2:AfficherFormulaire&amp;nbsp;&lt;/font&gt;" style="text;html=1;strokeColor=none;fillColor=none;align=center;verticalAlign=middle;whiteSpace=wrap;rounded=0;" vertex="1" parent="1">
          <mxGeometry x="-25" y="435.25" width="200" height="30" as="geometry" />
        </mxCell>
        <mxCell id="67tb0t_BVhYQ47Y2KXhV-125" style="edgeStyle=elbowEdgeStyle;rounded=0;orthogonalLoop=1;jettySize=auto;html=1;elbow=vertical;curved=0;" edge="1" parent="1" source="67tb0t_BVhYQ47Y2KXhV-98" target="67tb0t_BVhYQ47Y2KXhV-98">
          <mxGeometry relative="1" as="geometry" />
        </mxCell>
        <mxCell id="67tb0t_BVhYQ47Y2KXhV-126" value="&lt;font style=&quot;font-size: 16px;&quot;&gt;4:Vérifier champs&lt;/font&gt;" style="text;html=1;strokeColor=none;fillColor=none;align=center;verticalAlign=middle;whiteSpace=wrap;rounded=0;" vertex="1" parent="1">
          <mxGeometry x="235" y="422.75" width="140" height="30" as="geometry" />
        </mxCell>
        <mxCell id="67tb0t_BVhYQ47Y2KXhV-127" value="[&lt;span style=&quot;font-size: 16px;&quot;&gt;Création&lt;/span&gt;&lt;span style=&quot;font-size: 16px;&quot;&gt;]&lt;/span&gt;" style="text;html=1;strokeColor=none;fillColor=none;align=center;verticalAlign=middle;whiteSpace=wrap;rounded=0;" vertex="1" parent="1">
          <mxGeometry x="-380" y="220" width="180" height="80" as="geometry" />
        </mxCell>
        <mxCell id="67tb0t_BVhYQ47Y2KXhV-145" style="edgeStyle=elbowEdgeStyle;rounded=0;orthogonalLoop=1;jettySize=auto;html=1;elbow=vertical;curved=0;" edge="1" parent="1" source="67tb0t_BVhYQ47Y2KXhV-130" target="67tb0t_BVhYQ47Y2KXhV-141">
          <mxGeometry relative="1" as="geometry" />
        </mxCell>
        <mxCell id="67tb0t_BVhYQ47Y2KXhV-151" style="edgeStyle=elbowEdgeStyle;rounded=0;orthogonalLoop=1;jettySize=auto;html=1;elbow=vertical;curved=0;endArrow=open;endFill=0;dashed=1;startSize=12;endSize=15;" edge="1" parent="1" source="67tb0t_BVhYQ47Y2KXhV-130">
          <mxGeometry relative="1" as="geometry">
            <mxPoint x="205" y="662.75" as="targetPoint" />
          </mxGeometry>
        </mxCell>
        <mxCell id="67tb0t_BVhYQ47Y2KXhV-130" value="" style="html=1;points=[];perimeter=orthogonalPerimeter;outlineConnect=0;targetShapes=umlLifeline;portConstraint=eastwest;newEdgeStyle={&quot;edgeStyle&quot;:&quot;elbowEdgeStyle&quot;,&quot;elbow&quot;:&quot;vertical&quot;,&quot;curved&quot;:0,&quot;rounded&quot;:0};" vertex="1" parent="1">
          <mxGeometry x="475" y="582.75" width="10" height="80" as="geometry" />
        </mxCell>
        <mxCell id="67tb0t_BVhYQ47Y2KXhV-131" value="" style="html=1;verticalAlign=bottom;endArrow=block;edgeStyle=elbowEdgeStyle;elbow=vertical;curved=0;rounded=0;" edge="1" target="67tb0t_BVhYQ47Y2KXhV-130" parent="1">
          <mxGeometry relative="1" as="geometry">
            <mxPoint x="205" y="602.75" as="sourcePoint" />
            <Array as="points">
              <mxPoint x="445" y="592.75" />
            </Array>
          </mxGeometry>
        </mxCell>
        <mxCell id="67tb0t_BVhYQ47Y2KXhV-134" value="&lt;font style=&quot;font-size: 16px;&quot;&gt;[HTTP_POST]addElement(info)&lt;/font&gt;" style="text;html=1;strokeColor=none;fillColor=none;align=center;verticalAlign=middle;whiteSpace=wrap;rounded=0;" vertex="1" parent="1">
          <mxGeometry x="275" y="552.75" width="140" height="30" as="geometry" />
        </mxCell>
        <mxCell id="67tb0t_BVhYQ47Y2KXhV-141" value="" style="ellipse;shape=umlEntity;whiteSpace=wrap;html=1;" vertex="1" parent="1">
          <mxGeometry x="1025" y="530.25" width="70" height="75" as="geometry" />
        </mxCell>
        <mxCell id="67tb0t_BVhYQ47Y2KXhV-142" value="&lt;font style=&quot;font-size: 16px;&quot;&gt;t: Element&lt;/font&gt;" style="text;html=1;strokeColor=none;fillColor=none;align=center;verticalAlign=middle;whiteSpace=wrap;rounded=0;" vertex="1" parent="1">
          <mxGeometry x="995" y="617.75" width="140" height="30" as="geometry" />
        </mxCell>
        <mxCell id="67tb0t_BVhYQ47Y2KXhV-98" value="" style="html=1;points=[];perimeter=orthogonalPerimeter;outlineConnect=0;targetShapes=umlLifeline;portConstraint=eastwest;newEdgeStyle={&quot;edgeStyle&quot;:&quot;elbowEdgeStyle&quot;,&quot;elbow&quot;:&quot;vertical&quot;,&quot;curved&quot;:0,&quot;rounded&quot;:0};" vertex="1" parent="1">
          <mxGeometry x="200" y="410.25" width="10" height="55" as="geometry" />
        </mxCell>
        <mxCell id="67tb0t_BVhYQ47Y2KXhV-146" value="&lt;font style=&quot;font-size: 16px;&quot;&gt;t := addElement(info)&lt;/font&gt;" style="text;html=1;strokeColor=none;fillColor=none;align=center;verticalAlign=middle;whiteSpace=wrap;rounded=0;" vertex="1" parent="1">
          <mxGeometry x="835" y="552.75" width="180" height="30" as="geometry" />
        </mxCell>
        <mxCell id="67tb0t_BVhYQ47Y2KXhV-153" style="edgeStyle=elbowEdgeStyle;rounded=0;orthogonalLoop=1;jettySize=auto;html=1;elbow=vertical;curved=0;endArrow=open;endFill=0;dashed=1;startSize=12;endSize=15;" edge="1" parent="1">
          <mxGeometry relative="1" as="geometry">
            <mxPoint x="-65" y="682.75" as="targetPoint" />
            <mxPoint x="210" y="682.75" as="sourcePoint" />
          </mxGeometry>
        </mxCell>
        <mxCell id="67tb0t_BVhYQ47Y2KXhV-154" value="&lt;font style=&quot;font-size: 16px;&quot;&gt;[HTTP_GET]CREATED(t)&lt;/font&gt;" style="text;html=1;strokeColor=none;fillColor=none;align=center;verticalAlign=middle;whiteSpace=wrap;rounded=0;" vertex="1" parent="1">
          <mxGeometry x="275" y="622.75" width="140" height="30" as="geometry" />
        </mxCell>
        <mxCell id="67tb0t_BVhYQ47Y2KXhV-157" value="&lt;font style=&quot;font-size: 16px;&quot;&gt;Élément créé avec sucés&lt;/font&gt;" style="text;html=1;align=center;verticalAlign=middle;resizable=0;points=[];autosize=1;strokeColor=none;fillColor=none;" vertex="1" parent="1">
          <mxGeometry x="-45" y="657.75" width="200" height="30" as="geometry" />
        </mxCell>
        <mxCell id="67tb0t_BVhYQ47Y2KXhV-168" value="" style="html=1;points=[];perimeter=orthogonalPerimeter;outlineConnect=0;targetShapes=umlLifeline;portConstraint=eastwest;newEdgeStyle={&quot;edgeStyle&quot;:&quot;elbowEdgeStyle&quot;,&quot;elbow&quot;:&quot;vertical&quot;,&quot;curved&quot;:0,&quot;rounded&quot;:0};" vertex="1" parent="1">
          <mxGeometry x="475" y="830" width="10" height="99.79" as="geometry" />
        </mxCell>
        <mxCell id="67tb0t_BVhYQ47Y2KXhV-169" value="&lt;font style=&quot;font-size: 16px;&quot;&gt;3:Remplier formulaire&lt;/font&gt;" style="html=1;verticalAlign=bottom;startArrow=none;endArrow=block;startSize=8;edgeStyle=elbowEdgeStyle;elbow=vertical;curved=0;rounded=0;startFill=0;" edge="1" parent="1" target="67tb0t_BVhYQ47Y2KXhV-168">
          <mxGeometry relative="1" as="geometry">
            <mxPoint x="-70" y="830" as="sourcePoint" />
          </mxGeometry>
        </mxCell>
        <mxCell id="67tb0t_BVhYQ47Y2KXhV-239" value="Text" style="edgeLabel;html=1;align=center;verticalAlign=middle;resizable=0;points=[];" vertex="1" connectable="0" parent="67tb0t_BVhYQ47Y2KXhV-169">
          <mxGeometry x="0.5938" relative="1" as="geometry">
            <mxPoint as="offset" />
          </mxGeometry>
        </mxCell>
        <mxCell id="67tb0t_BVhYQ47Y2KXhV-170" style="edgeStyle=elbowEdgeStyle;rounded=0;orthogonalLoop=1;jettySize=auto;html=1;elbow=vertical;curved=0;" edge="1" parent="1" source="67tb0t_BVhYQ47Y2KXhV-168" target="67tb0t_BVhYQ47Y2KXhV-168">
          <mxGeometry relative="1" as="geometry" />
        </mxCell>
        <mxCell id="67tb0t_BVhYQ47Y2KXhV-171" value="&lt;font style=&quot;font-size: 16px;&quot;&gt;4:Vérifier champs&lt;/font&gt;" style="text;html=1;strokeColor=none;fillColor=none;align=center;verticalAlign=middle;whiteSpace=wrap;rounded=0;" vertex="1" parent="1">
          <mxGeometry x="510" y="864.9" width="140" height="30" as="geometry" />
        </mxCell>
        <mxCell id="67tb0t_BVhYQ47Y2KXhV-238" value="&lt;font style=&quot;font-size: 16px;&quot;&gt;[HTTP_GET]CREATED(t)&lt;/font&gt;" style="text;html=1;strokeColor=none;fillColor=none;align=center;verticalAlign=middle;whiteSpace=wrap;rounded=0;" vertex="1" parent="1">
          <mxGeometry x="280" y="885" width="140" height="30" as="geometry" />
        </mxCell>
      </root>
    </mxGraphModel>
  </diagram>
</mxfile>
